<?xml version="1.0" standalone="no"?><svg xmlns="http://www.w3.org/2000/svg" viewBox="0 0 1440 320"><path fill="#b20003" fill-opacity="1" d="M0,192L13.3,176C26.7,160,53,128,80,96C106.7,64,133,32,160,42.7C186.7,53,213,107,240,128C266.7,149,293,139,320,133.3C346.7,128,373,128,400,138.7C426.7,149,453,171,480,170.7C506.7,171,533,149,560,128C586.7,107,613,85,640,96C666.7,107,693,149,720,154.7C746.7,160,773,128,800,138.7C826.7,149,853,203,880,218.7C906.7,235,933,213,960,192C986.7,171,1013,149,1040,133.3C1066.7,117,1093,107,1120,106.7C1146.7,107,1173,117,1200,138.7C1226.7,160,1253,192,1280,176C1306.7,160,1333,96,1360,64C1386.7,32,1413,32,1427,32L1440,32L1440,320L1426.7,320C1413.3,320,1387,320,1360,320C1333.3,320,1307,320,1280,320C1253.3,320,1227,320,1200,320C1173.3,320,1147,320,1120,320C1093.3,320,1067,320,1040,320C1013.3,320,987,320,960,320C933.3,320,907,320,880,320C853.3,320,827,320,800,320C773.3,320,747,320,720,320C693.3,320,667,320,640,320C613.3,320,587,320,560,320C533.3,320,507,320,480,320C453.3,320,427,320,400,320C373.3,320,347,320,320,320C293.3,320,267,320,240,320C213.3,320,187,320,160,320C133.3,320,107,320,80,320C53.3,320,27,320,13,320L0,320Z"></path></svg>