<?xml version="1.0" standalone="no"?><svg xmlns="http://www.w3.org/2000/svg" viewBox="0 0 1440 320"><path fill="#b20003" fill-opacity="1" d="M0,224L6.2,224C12.3,224,25,224,37,240C49.2,256,62,288,74,261.3C86.2,235,98,149,111,128C123.1,107,135,149,148,181.3C160,213,172,235,185,229.3C196.9,224,209,192,222,170.7C233.8,149,246,139,258,149.3C270.8,160,283,192,295,197.3C307.7,203,320,181,332,160C344.6,139,357,117,369,128C381.5,139,394,181,406,213.3C418.5,245,431,267,443,266.7C455.4,267,468,245,480,245.3C492.3,245,505,267,517,261.3C529.2,256,542,224,554,213.3C566.2,203,578,213,591,202.7C603.1,192,615,160,628,149.3C640,139,652,149,665,144C676.9,139,689,117,702,101.3C713.8,85,726,75,738,85.3C750.8,96,763,128,775,122.7C787.7,117,800,75,812,90.7C824.6,107,837,181,849,208C861.5,235,874,213,886,192C898.5,171,911,149,923,138.7C935.4,128,948,128,960,144C972.3,160,985,192,997,224C1009.2,256,1022,288,1034,250.7C1046.2,213,1058,107,1071,85.3C1083.1,64,1095,128,1108,154.7C1120,181,1132,171,1145,138.7C1156.9,107,1169,53,1182,58.7C1193.8,64,1206,128,1218,154.7C1230.8,181,1243,171,1255,160C1267.7,149,1280,139,1292,144C1304.6,149,1317,171,1329,176C1341.5,181,1354,171,1366,160C1378.5,149,1391,139,1403,138.7C1415.4,139,1428,149,1434,154.7L1440,160L1440,320L1433.8,320C1427.7,320,1415,320,1403,320C1390.8,320,1378,320,1366,320C1353.8,320,1342,320,1329,320C1316.9,320,1305,320,1292,320C1280,320,1268,320,1255,320C1243.1,320,1231,320,1218,320C1206.2,320,1194,320,1182,320C1169.2,320,1157,320,1145,320C1132.3,320,1120,320,1108,320C1095.4,320,1083,320,1071,320C1058.5,320,1046,320,1034,320C1021.5,320,1009,320,997,320C984.6,320,972,320,960,320C947.7,320,935,320,923,320C910.8,320,898,320,886,320C873.8,320,862,320,849,320C836.9,320,825,320,812,320C800,320,788,320,775,320C763.1,320,751,320,738,320C726.2,320,714,320,702,320C689.2,320,677,320,665,320C652.3,320,640,320,628,320C615.4,320,603,320,591,320C578.5,320,566,320,554,320C541.5,320,529,320,517,320C504.6,320,492,320,480,320C467.7,320,455,320,443,320C430.8,320,418,320,406,320C393.8,320,382,320,369,320C356.9,320,345,320,332,320C320,320,308,320,295,320C283.1,320,271,320,258,320C246.2,320,234,320,222,320C209.2,320,197,320,185,320C172.3,320,160,320,148,320C135.4,320,123,320,111,320C98.5,320,86,320,74,320C61.5,320,49,320,37,320C24.6,320,12,320,6,320L0,320Z"></path></svg>