<?xml version="1.0" standalone="no"?><svg xmlns="http://www.w3.org/2000/svg" viewBox="0 0 1440 320"><path fill="#b20003" fill-opacity="1" d="M0,256L6.2,245.3C12.3,235,25,213,37,202.7C49.2,192,62,192,74,192C86.2,192,98,192,111,202.7C123.1,213,135,235,148,234.7C160,235,172,213,185,218.7C196.9,224,209,256,222,266.7C233.8,277,246,267,258,240C270.8,213,283,171,295,154.7C307.7,139,320,149,332,149.3C344.6,149,357,139,369,160C381.5,181,394,235,406,240C418.5,245,431,203,443,186.7C455.4,171,468,181,480,170.7C492.3,160,505,128,517,144C529.2,160,542,224,554,240C566.2,256,578,224,591,208C603.1,192,615,192,628,202.7C640,213,652,235,665,245.3C676.9,256,689,256,702,234.7C713.8,213,726,171,738,176C750.8,181,763,235,775,261.3C787.7,288,800,288,812,282.7C824.6,277,837,267,849,266.7C861.5,267,874,277,886,245.3C898.5,213,911,139,923,122.7C935.4,107,948,149,960,160C972.3,171,985,149,997,160C1009.2,171,1022,213,1034,218.7C1046.2,224,1058,192,1071,192C1083.1,192,1095,224,1108,208C1120,192,1132,128,1145,117.3C1156.9,107,1169,149,1182,170.7C1193.8,192,1206,192,1218,165.3C1230.8,139,1243,85,1255,80C1267.7,75,1280,117,1292,112C1304.6,107,1317,53,1329,32C1341.5,11,1354,21,1366,48C1378.5,75,1391,117,1403,165.3C1415.4,213,1428,267,1434,293.3L1440,320L1440,320L1433.8,320C1427.7,320,1415,320,1403,320C1390.8,320,1378,320,1366,320C1353.8,320,1342,320,1329,320C1316.9,320,1305,320,1292,320C1280,320,1268,320,1255,320C1243.1,320,1231,320,1218,320C1206.2,320,1194,320,1182,320C1169.2,320,1157,320,1145,320C1132.3,320,1120,320,1108,320C1095.4,320,1083,320,1071,320C1058.5,320,1046,320,1034,320C1021.5,320,1009,320,997,320C984.6,320,972,320,960,320C947.7,320,935,320,923,320C910.8,320,898,320,886,320C873.8,320,862,320,849,320C836.9,320,825,320,812,320C800,320,788,320,775,320C763.1,320,751,320,738,320C726.2,320,714,320,702,320C689.2,320,677,320,665,320C652.3,320,640,320,628,320C615.4,320,603,320,591,320C578.5,320,566,320,554,320C541.5,320,529,320,517,320C504.6,320,492,320,480,320C467.7,320,455,320,443,320C430.8,320,418,320,406,320C393.8,320,382,320,369,320C356.9,320,345,320,332,320C320,320,308,320,295,320C283.1,320,271,320,258,320C246.2,320,234,320,222,320C209.2,320,197,320,185,320C172.3,320,160,320,148,320C135.4,320,123,320,111,320C98.5,320,86,320,74,320C61.5,320,49,320,37,320C24.6,320,12,320,6,320L0,320Z"></path></svg>