<?xml version="1.0" standalone="no"?><svg xmlns="http://www.w3.org/2000/svg" viewBox="0 0 1440 320"><path fill="#b20003" fill-opacity="1" d="M0,128L6.2,154.7C12.3,181,25,235,37,250.7C49.2,267,62,245,74,202.7C86.2,160,98,96,111,74.7C123.1,53,135,75,148,101.3C160,128,172,160,185,149.3C196.9,139,209,85,222,64C233.8,43,246,53,258,53.3C270.8,53,283,43,295,32C307.7,21,320,11,332,53.3C344.6,96,357,192,369,240C381.5,288,394,288,406,250.7C418.5,213,431,139,443,96C455.4,53,468,43,480,32C492.3,21,505,11,517,48C529.2,85,542,171,554,176C566.2,181,578,107,591,90.7C603.1,75,615,117,628,128C640,139,652,117,665,117.3C676.9,117,689,139,702,138.7C713.8,139,726,117,738,128C750.8,139,763,181,775,197.3C787.7,213,800,203,812,170.7C824.6,139,837,85,849,90.7C861.5,96,874,160,886,186.7C898.5,213,911,203,923,213.3C935.4,224,948,256,960,261.3C972.3,267,985,245,997,213.3C1009.2,181,1022,139,1034,138.7C1046.2,139,1058,181,1071,208C1083.1,235,1095,245,1108,218.7C1120,192,1132,128,1145,128C1156.9,128,1169,192,1182,218.7C1193.8,245,1206,235,1218,229.3C1230.8,224,1243,224,1255,218.7C1267.7,213,1280,203,1292,170.7C1304.6,139,1317,85,1329,58.7C1341.5,32,1354,32,1366,26.7C1378.5,21,1391,11,1403,5.3C1415.4,0,1428,0,1434,0L1440,0L1440,320L1433.8,320C1427.7,320,1415,320,1403,320C1390.8,320,1378,320,1366,320C1353.8,320,1342,320,1329,320C1316.9,320,1305,320,1292,320C1280,320,1268,320,1255,320C1243.1,320,1231,320,1218,320C1206.2,320,1194,320,1182,320C1169.2,320,1157,320,1145,320C1132.3,320,1120,320,1108,320C1095.4,320,1083,320,1071,320C1058.5,320,1046,320,1034,320C1021.5,320,1009,320,997,320C984.6,320,972,320,960,320C947.7,320,935,320,923,320C910.8,320,898,320,886,320C873.8,320,862,320,849,320C836.9,320,825,320,812,320C800,320,788,320,775,320C763.1,320,751,320,738,320C726.2,320,714,320,702,320C689.2,320,677,320,665,320C652.3,320,640,320,628,320C615.4,320,603,320,591,320C578.5,320,566,320,554,320C541.5,320,529,320,517,320C504.6,320,492,320,480,320C467.7,320,455,320,443,320C430.8,320,418,320,406,320C393.8,320,382,320,369,320C356.9,320,345,320,332,320C320,320,308,320,295,320C283.1,320,271,320,258,320C246.2,320,234,320,222,320C209.2,320,197,320,185,320C172.3,320,160,320,148,320C135.4,320,123,320,111,320C98.5,320,86,320,74,320C61.5,320,49,320,37,320C24.6,320,12,320,6,320L0,320Z"></path></svg>